<svg xmlns="http://www.w3.org/2000/svg" xmlns:xlink="http://www.w3.org/1999/xlink" aria-hidden="true" role="img" class="iconify iconify--logos" width="31.88" height="32" preserveAspectRatio="xMidYMid meet" viewBox="100 70 260 260">

<defs>
<linearGradient id="IconifyId1813088fe1fbc01fb466" x1="-.828%" x2="57.636%" y1="7.652%" y2="78.411%">

<stop offset="0%" stop-color="#41D1FF"></stop>

<stop offset="100%" stop-color="#BD34FE"></stop>

</linearGradient>

<linearGradient id="IconifyId1813088fe1fbc01fb467" x1="43.376%" x2="50.316%" y1="2.242%" y2="89.03%">

<stop offset="0%" stop-color="#FFEA83"></stop>
<stop offset="8.333%" stop-color="#FFDD35"></stop>
<stop offset="100%" stop-color="#FFA800"></stop>

</linearGradient>

</defs>

<path fill="#ffffff" opacity="1.000000" stroke="none" 
	d="
M207.943802,203.702576 
	C208.257599,202.307907 209.264023,202.121094 210.248367,201.964981 
	C233.470016,198.282089 250.322449,179.809509 253.729019,154.790588 
	C259.417450,113.013016 239.845764,79.717377 199.708328,63.293503 
	C195.156631,61.430984 190.506378,59.809357 186.128159,58.161228 
	C185.958038,56.979500 186.564819,56.819954 186.991180,56.810898 
	C210.566284,56.309780 233.928574,57.685768 256.674713,64.633118 
	C264.061371,66.889229 270.974548,70.153236 277.484070,74.242775 
	C298.550049,87.477219 305.717133,107.161774 302.772095,130.938431 
	C298.717041,163.676773 277.620819,182.637711 249.184692,195.136749 
	C242.253998,198.183121 234.930603,200.336105 226.681915,203.296783 
	C243.512756,205.236877 258.289276,209.715851 271.769165,218.171738 
	C291.458862,230.523071 302.722504,248.197815 302.836243,271.404694 
	C302.994080,303.610229 319.190216,324.455627 346.695282,338.306091 
	C347.715942,338.820007 348.701904,339.402740 349.595978,339.894043 
	C349.621521,341.014099 348.990387,341.285553 348.326599,341.285522 
	C330.270599,341.285126 312.309021,340.238434 295.112396,334.160278 
	C270.423828,325.434113 257.641846,306.556244 251.647736,282.113739 
	C248.398758,268.865173 247.949142,255.066727 243.610886,242.019424 
	C238.963028,228.041000 232.108017,215.730927 218.684891,208.357620 
	C215.361267,206.531937 211.634079,205.440918 207.943802,203.702576 
z"/>
<path fill="url(#IconifyId1813088fe1fbc01fb467)"  opacity="1.000000" stroke="none" 
	d="
M123.991989,294.309143 
	C129.444748,282.872070 139.546509,276.680359 150.364700,277.860901 
	C161.568405,279.083557 170.789215,287.177155 173.203888,297.908142 
	C175.578430,308.460846 171.565002,318.563385 162.478500,324.906006 
	C154.184875,330.695160 142.907883,330.833557 134.245056,325.252411 
	C125.162277,319.400696 120.683319,308.988892 122.782585,298.517914 
	C123.043182,297.218048 123.492943,295.956085 123.991989,294.309143 
z"/>
</svg>